<svg id="Capa_1" enable-background="new 0 0 512.008 512.008" height="512" viewBox="0 0 512.008 512.008" width="512" xmlns="http://www.w3.org/2000/svg"><g><path d="m302.315.005-46.311-.001-46.311.001-17.32 22.263-.474 70.631h64.105 63.79v-67.315z" fill="#3d4566"/><path d="m319.794 25.584-17.479-25.579-46.311-.001v92.895h63.79z" fill="#2e2e4d"/><path d="m181.004 61.004h180v421h-180z" fill="#f3f5f9"/><path d="m256.004 61.004h105v421h-105z" fill="#e1e6f0"/><path d="m480.945 104.642c-.234-2.585-1.132-5.017-2.551-7.094l-46.022 31.756c-17.069 39.805-41.627 116.938-41.369 230.865l30 91.835h76c8.784 0 15.74-7.549 14.941-16.362z" fill="#3d4566"/><g><path d="m472.713 92.586-101.997-51.006-99.712 274.424v121c0 41.353 33.647 75 75 75h60c8.291 0 15-6.709 15-15v-106l-30-15 30-15v-.835c-.396-174.441 57.391-262.621 57.391-262.621-1.419-2.076-3.36-3.798-5.682-4.962z" fill="#2e2e4d"/><path d="m346.004 361.004c-8.291 0-15 6.709-15 15s6.709 15 15 15h75v-30z" fill="#1e1e3a"/></g><path d="m420.856 73.652c-9.932-43.407-62.57-73.457-104.852-73.619l-13.688-.028-31.239 314.505c-.718 7.207 3.809 13.887 10.752 15.908 7.124 2.025 14.418-1.356 17.593-7.705l90-180c2.109-4.219 2.109-9.199 0-13.418l-9.082-18.149 33.985-22.661c4.86-3.241 7.834-9.138 6.531-14.833z" fill="#3d4566"/><path d="m31.062 104.642c.234-2.585 1.132-5.017 2.551-7.094l46.022 31.756c17.069 39.805 41.627 116.938 41.369 230.865l-30 91.835h-76c-8.784 0-15.74-7.549-14.941-16.362z" fill="#4d5e80"/><g><path d="m39.295 92.586 101.997-51.006 99.712 274.424v121c0 41.353-33.647 75-75 75h-60c-8.291 0-15-6.709-15-15v-106l30-15-30-15v-.835c.395-174.441-57.391-262.621-57.391-262.621 1.419-2.076 3.36-3.798 5.682-4.962z" fill="#3d4566"/><path d="m166.004 361.004c8.291 0 15 6.709 15 15s-6.709 15-15 15h-75v-30z" fill="#2e2e4d"/></g><path d="m240.931 314.51-31.239-314.506-12.688.03c-42.448-.314-95.841 29.868-105.852 73.618-1.303 5.695 1.671 11.592 6.531 14.833l33.985 22.661-9.082 18.149c-2.109 4.219-2.109 9.199 0 13.418l90 180c3.175 6.349 10.469 9.73 17.593 7.705 6.943-2.022 11.469-8.701 10.752-15.908z" fill="#4d5e80"/></g></svg>