<?xml version="1.0" encoding="iso-8859-1"?>
<!-- Generator: Adobe Illustrator 19.0.0, SVG Export Plug-In . SVG Version: 6.00 Build 0)  -->
<svg xmlns="http://www.w3.org/2000/svg" xmlns:xlink="http://www.w3.org/1999/xlink" version="1.1" id="Layer_1" x="0px" y="0px" viewBox="0 0 512 512" style="enable-background:new 0 0 512 512;" xml:space="preserve">
<path style="fill:#D8722E;" d="M456.511,465.226V352.082c0-9.493-7.695-17.188-17.187-17.188H72.677  c-9.492,0-17.186,7.695-17.186,17.188v113.144L456.511,465.226L456.511,465.226z"/>
<path style="fill:#E58741;" d="M439.323,334.895H284.769c43.968,46.419,104.29,77.175,171.742,83.077v-65.888  C456.511,342.59,448.816,334.895,439.323,334.895z"/>
<path style="fill:#D8722E;" d="M416.408,334.895V224.666c0-9.492-7.695-17.186-17.185-17.186H112.778  c-9.491,0-17.185,7.695-17.185,17.186v110.229H416.408z"/>
<path style="fill:#E58741;" d="M399.223,207.479H217.238c10.639,48.71,34.45,92.491,67.53,127.415h131.64V224.666  C416.408,215.174,408.713,207.479,399.223,207.479z"/>
<path style="fill:#D8722E;" d="M366.281,207.479v-85.984c0-9.493-7.694-17.187-17.185-17.187h-186.19  c-9.492,0-17.186,7.695-17.186,17.187v85.984H366.281z"/>
<path style="fill:#E58741;" d="M349.094,104.308H214.856c-2.513,14.778-3.84,29.96-3.84,45.454c0,19.814,2.16,39.121,6.222,57.717  H366.28v-85.984C366.281,112.003,358.587,104.308,349.094,104.308z"/>
<rect x="145.718" y="173.528" style="fill:#9E4819;" width="220.559" height="33.947"/>
<path style="fill:#C66626;" d="M217.238,207.479H366.28v-33.947H212.076C213.092,185.07,214.819,196.404,217.238,207.479z"/>
<polyline style="fill:#9E4819;" points="332.711,300.95 95.593,300.95 95.593,334.895 416.408,334.895 416.408,300.95   358.641,300.95 "/>
<path style="fill:#C66626;" d="M332.711,300.95H257.46c8.189,12.048,17.324,23.402,27.309,33.945h131.64V300.95h-57.767H332.711z"/>
<polyline style="fill:#9E4819;" points="147.957,431.282 55.489,431.282 55.489,465.226 456.511,465.226 456.511,431.282   174.968,431.282 "/>
<path style="fill:#FF3B3B;" d="M288.875,13.603c-6.837-7.124-18.154-7.358-25.278-0.521l-7.597,7.291l-7.595-7.291  c-7.127-6.838-18.443-6.604-25.28,0.521c-6.837,7.122-6.603,18.438,0.519,25.276l6.541,6.277l25.818,24.781l25.815-24.781  l6.541-6.277C295.479,32.04,295.717,20.725,288.875,13.603z"/>
<path style="fill:#49516D;" d="M488.019,486.71c0,9.491-7.695,17.186-17.186,17.186H41.168c-9.492,0-17.186-7.696-17.186-17.186  v-4.297c0-9.492,7.695-17.188,17.186-17.188h429.666c9.492,0,17.186,7.696,17.186,17.188v4.297H488.019z"/>
<path style="fill:#323B56;" d="M470.833,484.56H41.168c-6.791,0-12.644-3.949-15.436-9.667c-1.11,2.273-1.75,4.819-1.75,7.52v4.297  c0,9.491,7.695,17.186,17.186,17.186h429.666c9.492,0,17.186-7.696,17.186-17.186v-4.297c0-2.701-0.641-5.246-1.75-7.52  C483.477,480.611,477.623,484.56,470.833,484.56z"/>
<path style="fill:#BF5C25;" d="M98.326,334.895H72.677c-9.492,0-17.186,7.695-17.186,17.188v113.144H81.14V352.082  C81.14,342.59,88.835,334.895,98.326,334.895z"/>
<rect x="55.491" y="431.286" style="fill:#843914;" width="25.649" height="33.944"/>
<path style="fill:#BF5C25;" d="M138.427,207.479h-25.649c-9.491,0-17.185,7.695-17.185,17.186v110.229h25.649V224.666  C121.242,215.174,128.937,207.479,138.427,207.479z"/>
<rect x="95.597" y="300.954" style="fill:#843914;" width="25.649" height="33.945"/>
<path style="fill:#BF5C25;" d="M188.556,104.308h-25.649c-9.492,0-17.186,7.695-17.186,17.187v85.984h25.649v-85.984  C171.369,112.003,179.064,104.308,188.556,104.308z"/>
<rect x="145.718" y="173.528" style="fill:#843914;" width="25.649" height="33.947"/>
<g style="opacity:0.1;">
	<path style="fill:#231F20;" d="M49.631,486.71v-4.297c0-9.492,7.695-17.188,17.186-17.188H41.168   c-9.492,0-17.186,7.696-17.186,17.188v4.297c0,9.491,7.695,17.186,17.186,17.186h25.649   C57.326,503.897,49.631,496.201,49.631,486.71z"/>
</g>
<path style="fill:#231F20;" d="M470.833,457.123h-6.219v-25.841v-79.2c0-13.945-11.346-25.291-25.291-25.291h-14.812V300.95v-76.284  c0-13.945-11.345-25.29-25.289-25.29h-24.839v-25.844v-52.037c0-13.945-11.345-25.291-25.289-25.291h-84.991v-20.54  c0-0.699-0.098-1.373-0.265-2.02l30.13-28.921c5.006-4.806,7.842-11.273,7.985-18.21c0.143-6.94-2.427-13.519-7.232-18.522  C289.775,2.838,283.118,0,275.974,0c-6.738,0-13.125,2.569-17.986,7.236l-1.986,1.906l-1.986-1.906  C249.153,2.569,242.765,0,236.028,0c-7.144,0-13.803,2.838-18.749,7.991c-9.919,10.332-9.582,26.81,0.752,36.734l30.129,28.918  c-0.166,0.647-0.265,1.322-0.265,2.021v20.541h-84.991c-13.945,0-25.29,11.345-25.29,25.291v52.037v25.844h-24.838  c-13.944,0-25.289,11.345-25.289,25.29v76.284v25.842H72.676c-13.945,0-25.29,11.346-25.29,25.291v79.2v25.841h-6.219  c-13.945,0-25.29,11.346-25.29,25.291v4.297c0,13.945,11.345,25.29,25.29,25.29h429.666c13.945,0,25.29-11.345,25.29-25.29v-4.297  C496.122,468.468,484.778,457.123,470.833,457.123z M228.972,19.214c1.862-1.939,4.367-3.008,7.056-3.008  c2.535,0,4.936,0.967,6.767,2.722l7.595,7.291c3.135,3.01,8.086,3.01,11.222,0l7.597-7.291c1.828-1.756,4.231-2.722,6.765-2.722  c2.688,0,5.195,1.067,7.057,3.01c1.809,1.882,2.773,4.354,2.721,6.963c-0.054,2.609-1.121,5.043-3.005,6.852l-26.745,25.672  l-26.746-25.67C225.368,29.3,225.24,23.101,228.972,19.214z M162.906,112.412h186.189c5.008,0,9.082,4.074,9.082,9.084v43.934  H153.823v-43.934C153.823,116.487,157.898,112.412,162.906,112.412z M153.823,181.636h204.355v17.741H153.823V181.636z   M103.696,309.053h229.016c4.476,0,8.103-3.627,8.103-8.103s-3.627-8.103-8.103-8.103H103.696v-68.181  c0-5.009,4.074-9.083,9.082-9.083h32.941h220.561h32.942c5.008,0,9.082,4.074,9.082,9.083v68.181h-49.664  c-4.476,0-8.103,3.627-8.103,8.103s3.627,8.103,8.103,8.103h49.664v17.739H103.696V309.053z M63.592,439.385h84.364  c4.476,0,8.103-3.627,8.103-8.103s-3.627-8.103-8.103-8.103H63.592v-71.097c0-5.01,4.074-9.084,9.083-9.084h22.916h320.817h22.915  c5.01,0,9.084,4.075,9.084,9.084v71.097h-273.44c-4.476,0-8.103,3.627-8.103,8.103s3.627,8.103,8.103,8.103h273.44v17.737H63.592  V439.385z M479.916,486.71c0,5.009-4.074,9.083-9.083,9.083H41.168c-5.009,0-9.083-4.074-9.083-9.083v-4.297  c0-5.01,4.074-9.084,9.083-9.084H55.49h401.021h14.322c5.009,0,9.083,4.074,9.083,9.084v4.297H479.916z"/>
<g>
</g>
<g>
</g>
<g>
</g>
<g>
</g>
<g>
</g>
<g>
</g>
<g>
</g>
<g>
</g>
<g>
</g>
<g>
</g>
<g>
</g>
<g>
</g>
<g>
</g>
<g>
</g>
<g>
</g>
</svg>
