<?xml version="1.0" encoding="iso-8859-1"?>
<!-- Generator: Adobe Illustrator 19.0.0, SVG Export Plug-In . SVG Version: 6.00 Build 0)  -->
<svg xmlns="http://www.w3.org/2000/svg" xmlns:xlink="http://www.w3.org/1999/xlink" version="1.1" id="Layer_1" x="0px" y="0px" viewBox="0 0 511.999 511.999" style="enable-background:new 0 0 511.999 511.999;" xml:space="preserve">
<polygon style="fill:#F4A321;" points="309.207,47.562 328.105,47.562 370.473,47.562 389.366,47.562 409.889,83.106   349.289,153.674 349.289,153.674 349.289,153.674 349.289,153.674 288.688,83.106 "/>
<polygon style="fill:#ED9515;" points="328.105,47.562 370.473,47.562 389.366,47.562 409.889,83.106 288.688,83.106   309.207,47.562 "/>
<g>
	<path style="fill:#9D9FA5;" d="M281.986,211.626c22.049,26.728,35.307,60.956,35.307,98.23c0,37.269-13.259,71.502-35.307,98.225   c-9.827-6.755-18.581-14.953-25.988-24.273c16.155-20.334,25.841-46.029,25.841-73.953c0-27.93-9.686-53.623-25.841-73.956   C263.404,226.578,272.157,218.381,281.986,211.626z"/>
	<path style="fill:#9D9FA5;" d="M162.711,155.272c35.015,0,67.342,11.709,93.286,31.409c-9.595,7.286-18.326,15.659-25.987,24.946   c-19.162-13.169-42.34-20.899-67.3-20.899c-65.684,0-119.127,53.441-119.127,119.128c0,65.685,53.443,119.127,119.127,119.127   c24.959,0,48.138-7.731,67.3-20.902c7.661,9.287,16.392,17.661,25.987,24.949c-25.945,19.698-58.273,31.409-93.286,31.409   C77.474,464.438,8.129,395.089,8.129,309.856C8.129,224.617,77.474,155.272,162.711,155.272z"/>
</g>
<path style="fill:#E0E1E2;" d="M449.743,427.256c-27.038,23.169-62.141,37.181-100.455,37.181  c-85.239,0-154.583-69.348-154.583-154.582c0-85.239,69.344-154.583,154.583-154.583c85.235,0,154.582,69.344,154.582,154.583  c0,37.381-13.338,71.706-35.506,98.467 M230.16,309.856c0,65.685,53.441,119.127,119.128,119.127  c65.685,0,119.127-53.442,119.127-119.127c0-65.688-53.443-119.128-119.127-119.128C283.601,190.727,230.16,244.167,230.16,309.856z  "/>
<polygon style="fill:#EA7618;" points="325.269,79.312 344.224,46.478 333.525,46.478 314.627,46.478 294.107,82.022   354.708,152.59 371.453,133.092 "/>
<g>
	<path style="fill:#777D8C;" d="M299.629,225.916c-3.676-5.921-7.734-11.582-12.151-16.936   c-9.827,6.756-18.581,14.953-25.988,24.274c4.6,5.79,8.653,12.027,12.13,18.614C280.585,241.673,289.418,232.858,299.629,225.916z"/>
	<path style="fill:#777D8C;" d="M273.621,362.55c-3.477,6.587-7.531,12.824-12.13,18.614c7.407,9.32,16.16,17.517,25.988,24.273   c4.418-5.355,8.476-11.015,12.152-16.936C289.418,381.558,280.585,372.743,273.621,362.55z"/>
</g>
<g>
	<path style="fill:#231F20;" d="M364.959,147.901l50.851-59.215c1.378-1.457,2.228-3.417,2.228-5.581   c0-0.159-0.026-0.312-0.036-0.469c0-0.009-0.001-0.016-0.002-0.025c-0.079-1.293-0.454-2.498-1.068-3.558   c-0.002-0.003-0.003-0.008-0.005-0.012l-0.189-0.327c-0.031-0.049-0.055-0.104-0.088-0.153l-20.246-35.065   c-1.452-2.515-4.135-4.064-7.04-4.064h-80.159c-2.905,0-5.587,1.55-7.04,4.064L281.648,79.04c-0.201,0.347-0.366,0.706-0.512,1.072   c-0.048,0.121-0.082,0.245-0.124,0.367c-0.085,0.248-0.164,0.497-0.223,0.751c-0.035,0.145-0.06,0.289-0.086,0.436   c-0.043,0.24-0.077,0.479-0.098,0.721c-0.013,0.148-0.024,0.296-0.029,0.445c-0.009,0.247-0.002,0.494,0.013,0.741   c0.008,0.139,0.012,0.276,0.027,0.415c0.03,0.28,0.082,0.555,0.142,0.83c0.022,0.103,0.035,0.206,0.061,0.308   c0.095,0.373,0.217,0.741,0.366,1.101c0.03,0.072,0.072,0.139,0.103,0.21c0.112,0.247,0.223,0.494,0.36,0.732   c0.022,0.037,0.049,0.069,0.07,0.106c0.068,0.113,0.147,0.22,0.221,0.331c0.151,0.225,0.307,0.444,0.477,0.651   c0.038,0.047,0.066,0.098,0.105,0.143l51.096,59.5c-28.685,2.754-55.215,12.986-77.618,28.719   c-27.443-19.302-59.564-29.477-93.289-29.477C72.993,147.144,0,220.135,0,309.856c0,89.718,72.993,162.711,162.711,162.711   c33.723,0,65.842-10.174,93.289-29.477c26.433,18.563,58.609,29.477,93.29,29.477c38.738,0,76.292-13.899,105.743-39.137   c3.41-2.921,3.805-8.054,0.883-11.462c-2.92-3.409-8.052-3.805-11.462-0.883c-26.508,22.715-60.305,35.225-95.166,35.225   c-33.156,0-63.769-11.081-88.344-29.727c-0.011-0.009-0.02-0.018-0.03-0.026c-5.661-4.301-11.004-9.002-15.977-14.052   c-0.07-0.073-0.141-0.145-0.212-0.217c-0.877-0.894-1.742-1.801-2.595-2.717c-0.133-0.143-0.267-0.286-0.4-0.429   c-0.845-0.915-1.68-1.84-2.501-2.776c-0.081-0.093-0.165-0.184-0.246-0.277c-0.915-1.047-1.817-2.106-2.701-3.178   c-0.012-0.015-0.026-0.027-0.038-0.041c-20.864-25.312-33.409-57.723-33.409-93.011c0-35.304,12.557-67.729,33.439-93.048   c0.002-0.003,0.005-0.005,0.008-0.009c0.863-1.046,1.743-2.078,2.635-3.1c0.168-0.193,0.34-0.382,0.509-0.573   c0.732-0.829,1.471-1.652,2.221-2.465c0.198-0.215,0.398-0.428,0.597-0.642c0.777-0.832,1.564-1.657,2.361-2.471   c0.138-0.141,0.275-0.283,0.414-0.424c4.951-5.02,10.266-9.695,15.896-13.97c0.01-0.008,0.018-0.017,0.029-0.025   c24.575-18.646,55.189-29.729,88.346-29.729c80.755,0,146.453,65.699,146.453,146.454c0,33.969-11.945,67.096-33.636,93.281   c-2.865,3.456-2.383,8.581,1.074,11.445c3.456,2.864,8.582,2.383,11.445-1.074c24.101-29.095,37.374-65.905,37.374-103.652   C512,225.422,447.353,155.812,364.959,147.901z M349.289,141.197l-42.904-49.963h85.809L349.289,141.197z M384.673,55.691   l11.135,19.286h-93.04l11.133-19.286C313.902,55.691,384.673,55.691,384.673,55.691z M162.711,456.309   c-80.755,0-146.453-65.698-146.453-146.453s65.698-146.454,146.453-146.454c28.684,0,56.078,8.174,79.849,23.737   c-0.041,0.036-0.08,0.074-0.121,0.109c-1.077,0.94-2.141,1.896-3.192,2.864c-0.312,0.287-0.621,0.578-0.931,0.867   c-0.792,0.74-1.578,1.488-2.355,2.244c-0.364,0.353-0.728,0.707-1.089,1.063c-0.758,0.75-1.505,1.51-2.248,2.275   c-0.324,0.333-0.652,0.661-0.973,0.996c-0.969,1.016-1.926,2.043-2.869,3.082c-0.099,0.108-0.202,0.214-0.3,0.322   c-19.839-12.036-42.427-18.364-65.77-18.364c-70.169,0-127.256,57.087-127.256,127.257c0,70.169,57.087,127.256,127.256,127.256   c23.343,0,45.931-6.329,65.77-18.366c0.085,0.093,0.172,0.183,0.257,0.275c0.969,1.069,1.951,2.124,2.947,3.167   c0.263,0.275,0.534,0.545,0.8,0.818c0.802,0.827,1.609,1.647,2.429,2.457c0.327,0.323,0.657,0.643,0.986,0.964   c0.818,0.796,1.644,1.582,2.478,2.361c0.276,0.257,0.551,0.516,0.829,0.772c1.106,1.018,2.222,2.022,3.354,3.01   C218.787,448.134,191.393,456.309,162.711,456.309z M218.103,405.994c-16.821,9.744-35.8,14.861-55.392,14.861   c-61.205,0-110.999-49.794-110.999-110.999c0-61.206,49.794-111,110.999-111c19.592,0,38.572,5.117,55.393,14.858   c-19.807,26.954-31.528,60.202-31.528,96.141C186.577,345.793,198.297,379.039,218.103,405.994z"/>
	<path style="fill:#231F20;" d="M349.289,182.598c-70.17,0-127.257,57.087-127.257,127.257c0,70.169,57.087,127.256,127.257,127.256   c70.169,0,127.256-57.087,127.256-127.256C476.545,239.685,419.458,182.598,349.289,182.598z M266.382,383.533   c15.452-21.616,23.586-46.95,23.586-73.679c0-26.73-8.133-52.065-23.586-73.681c4.31-4.849,9.014-9.299,14.07-13.312   c18.565,25.1,28.711,55.7,28.711,86.994c0,31.295-10.146,61.893-28.711,86.99C275.398,392.834,270.692,388.382,266.382,383.533z    M255.976,249.804c11.622,17.903,17.734,38.452,17.734,60.051c0,21.598-6.112,42.146-17.734,60.049   c-11.186-17.322-17.686-37.94-17.686-60.049C238.288,287.745,244.789,267.126,255.976,249.804z M349.289,420.854   c-20.165,0-39.09-5.407-55.405-14.844c20.393-27.791,31.539-61.587,31.539-96.154c0-34.565-11.145-68.361-31.538-96.155   c16.315-9.437,35.24-14.844,55.405-14.844c61.206,0,110.999,49.794,110.999,111C460.288,371.059,410.494,420.854,349.289,420.854z"/>
</g>
<g>
</g>
<g>
</g>
<g>
</g>
<g>
</g>
<g>
</g>
<g>
</g>
<g>
</g>
<g>
</g>
<g>
</g>
<g>
</g>
<g>
</g>
<g>
</g>
<g>
</g>
<g>
</g>
<g>
</g>
</svg>
