<?xml version="1.0" encoding="iso-8859-1"?>
<!-- Generator: Adobe Illustrator 19.0.0, SVG Export Plug-In . SVG Version: 6.00 Build 0)  -->
<svg xmlns="http://www.w3.org/2000/svg" xmlns:xlink="http://www.w3.org/1999/xlink" version="1.1" id="Layer_1" x="0px" y="0px" viewBox="0 0 512 512" style="enable-background:new 0 0 512 512;" xml:space="preserve">
<path style="fill:#49516D;" d="M182.665,134.103V82.23h146.669v51.873h35.776V81.514c0-19.334-15.728-35.061-35.06-35.061H181.949  c-19.333,0-35.06,15.728-35.06,35.061v52.588H182.665z"/>
<path style="fill:#59637F;" d="M325.563,46.365h-24.551c-10.146,11.112-19.371,23.076-27.555,35.776h51.39v68.041h35.776V81.426  C360.624,62.092,344.896,46.365,325.563,46.365z"/>
<path style="fill:#EF7625;" d="M131.402,465.545H25.256c-9.484,0-17.172-7.688-17.172-17.173V152.348  c0-9.484,7.688-17.172,17.172-17.172h461.487c9.487,0,17.174,7.688,17.174,17.172v296.025c0,9.485-7.688,17.173-17.174,17.173  H157.808"/>
<path style="fill:#F4863B;" d="M499.427,152.26c0-9.484-7.688-17.172-17.174-17.172H247.094  c-10.544,28.8-16.299,59.908-16.299,92.362c0,103.373,58.398,193.093,143.995,238.009h107.463c9.487,0,17.174-7.688,17.174-17.173  V152.26z"/>
<path style="fill:#BF5317;" d="M39.007,448.373V152.348c0-9.484,7.688-17.172,17.172-17.172H30.646  c-9.484,0-17.172,7.688-17.172,17.172v296.025c0,9.485,7.688,17.173,17.172,17.173h25.533  C46.693,465.545,39.007,457.858,39.007,448.373z"/>
<g>
	<path style="fill:#F4A321;" d="M100.447,135.176H25.256c-9.484,0-17.172,7.688-17.172,17.172v75.19L100.447,135.176z"/>
	<path style="fill:#F4A321;" d="M100.447,465.545H25.256c-9.484,0-17.172-7.688-17.172-17.173v-75.19L100.447,465.545z"/>
</g>
<g>
	<path style="fill:#F9AB3A;" d="M411.552,135.176h75.19c9.487,0,17.174,7.688,17.174,17.172v75.19L411.552,135.176z"/>
	<path style="fill:#F9AB3A;" d="M411.552,465.545h75.19c9.487,0,17.174-7.688,17.174-17.173v-75.19L411.552,465.545z"/>
</g>
<g>
	<path style="fill:#F27B22;" d="M39.007,448.373v-44.267l-25.533-25.533v69.8c0,9.485,7.688,17.173,17.172,17.173h25.533   C46.693,465.545,39.007,457.858,39.007,448.373z"/>
	<path style="fill:#F27B22;" d="M13.474,152.348v69.8l25.533-25.533v-44.267c0-9.484,7.688-17.172,17.172-17.172H30.646   C21.161,135.176,13.474,142.864,13.474,152.348z"/>
</g>
<g>
	<path style="fill:#231F20;" d="M373.196,167.889c0-4.466-3.618-8.084-8.084-8.084H146.888c-4.466,0-8.084,3.618-8.084,8.084   s3.618,8.084,8.084,8.084h218.223C369.577,175.973,373.196,172.354,373.196,167.889z"/>
	<path style="fill:#231F20;" d="M486.742,127.092h-75.19h-38.357V81.514c0-23.79-19.355-43.145-43.144-43.145H181.949   c-23.789,0-43.144,19.355-43.144,43.145v45.578h-38.358H25.256C11.33,127.092,0,138.422,0,152.348v75.19v145.646v75.19   c0,13.926,11.33,25.257,25.256,25.257h75.191h0.022h30.935c4.466,0,8.084-3.618,8.084-8.084s-3.618-8.084-8.084-8.084h-27.608   l-87.626-87.629V230.887l87.627-87.626h304.408l87.627,87.626v138.947l-87.629,87.627H157.808c-4.466,0-8.084,3.618-8.084,8.084   s3.618,8.084,8.084,8.084h253.744h75.19c13.927,0,25.258-11.331,25.258-25.257v-75.19V227.538v-75.19   C512,138.422,500.669,127.092,486.742,127.092z M154.972,81.514c0-14.875,12.102-26.976,26.975-26.976H330.05   c14.875,0,26.975,12.103,26.975,26.976v44.504h-19.608V82.23c0-4.466-3.618-8.084-8.084-8.084H182.664   c-4.466,0-8.084,3.618-8.084,8.084v43.788h-19.608L154.972,81.514L154.972,81.514z M190.75,90.314H321.25v36.778H190.75V90.314z    M80.929,457.461H25.256c-5.01,0-9.088-4.077-9.088-9.089V392.7L80.929,457.461z M16.168,208.02v-55.672   c0-5.01,4.077-9.088,9.088-9.088h55.673L16.168,208.02z M431.069,143.26h55.672c5.011,0,9.09,4.077,9.09,9.088v55.672   L431.069,143.26z M495.832,448.373c0,5.011-4.078,9.089-9.09,9.089h-55.672l64.762-64.762V448.373z"/>
</g>
<g>
</g>
<g>
</g>
<g>
</g>
<g>
</g>
<g>
</g>
<g>
</g>
<g>
</g>
<g>
</g>
<g>
</g>
<g>
</g>
<g>
</g>
<g>
</g>
<g>
</g>
<g>
</g>
<g>
</g>
</svg>
